<svg width="62" height="46" viewBox="0 0 62 46" fill="none" xmlns="http://www.w3.org/2000/svg">
<path d="M2.00467 30.2225C1.77786 29.8811 1.47544 29.3356 1.28865 28.9317C0.19906 26.5665 0.15014 24.1181 1.06629 21.7696C2.07583 19.192 4.00597 17.2224 6.50092 16.2148C9.63628 14.9531 13.1007 15.1987 16.1071 16.8685C18.015 17.8929 19.367 19.4752 20.3944 21.7154C20.5233 22.0027 20.639 22.3067 20.7546 22.5691L2.00467 30.2225ZM8.26651 20.0165C6.0384 20.9118 4.89099 22.8689 5.13114 25.1591L14.5595 21.3573C12.9362 19.5751 10.8282 18.9838 8.26651 20.0165V20.0165ZM15.7336 28.2863C15.7291 28.2863 15.7291 28.2904 15.7291 28.2904L15.5334 28.1655C14.9686 29.0191 14.0925 29.7145 12.9851 30.1642C10.8771 31.022 8.92471 30.8013 7.51936 29.6479L7.39038 29.8311C7.39038 29.8311 7.39038 29.827 7.38594 29.827L4.99327 33.179C5.58921 33.5663 6.22519 33.891 6.89228 34.1534C9.534 35.1819 12.238 35.1319 14.9019 34.0493C16.8276 33.2664 18.3397 32.0755 19.3715 30.564L15.7336 28.2863ZM27.3055 11.2845V29.9144L30.4008 31.0887L28.6442 34.9279L25.2286 33.5954C24.4637 33.2831 23.9389 32.8084 23.5475 32.2712C23.1695 31.7258 22.8893 30.9721 22.8893 29.9644V11.2845H27.3055ZM35.3196 25.1716C35.3196 23.5851 36.0712 22.161 37.2542 21.1949L34.0788 17.8804C31.9263 19.6626 30.5698 22.2651 30.5698 25.1632C30.5654 28.0656 31.9218 30.6723 34.0699 32.4545L37.2408 29.1399C36.0623 28.1697 35.3196 26.7539 35.3196 25.1716V25.1716ZM40.9588 30.4557C40.3362 30.4557 39.7313 30.3558 39.171 30.1809L37.6544 34.3991C38.6907 34.7238 39.798 34.9029 40.9543 34.9029C45.9798 34.9071 50.1736 31.5675 51.1476 27.1328L46.4868 26.2417C45.9576 28.6527 43.685 30.4599 40.9588 30.4557V30.4557ZM40.9721 15.4402C39.8203 15.4402 38.7129 15.6151 37.6767 15.9358L39.1799 20.1581C39.7447 19.9832 40.3451 19.8874 40.9677 19.8874C43.6983 19.8916 45.9754 21.7071 46.4913 24.1222L51.1521 23.2395C50.1959 18.7964 46.0021 15.4444 40.9721 15.4402V15.4402Z" fill="white"/>
</svg>